<?xml version="1.0" standalone="no"?>
<!DOCTYPE svg PUBLIC "-//W3C//DTD SVG 20010904//EN"
 "http://www.w3.org/TR/2001/REC-SVG-20010904/DTD/svg10.dtd">
<svg version="1.0" xmlns="http://www.w3.org/2000/svg"
 width="255.000000pt" height="100.000000pt" viewBox="0 0 1920.000000 1080.000000"
 preserveAspectRatio="xMidYMid meet">
<metadata>
Created by potrace 1.16, written by Peter Selinger 2001-2019
</metadata>
<g transform="translate(0.000000,1080.000000) scale(0.100000,-0.100000)"
fill="#000000" stroke="none">
<path d="M1373 7019 c-212 -37 -411 -184 -503 -373 -51 -104 -70 -180 -70
-281 0 -204 93 -371 248 -443 51 -24 68 -27 172 -27 107 0 119 2 173 29 137
70 212 215 183 355 -13 63 -46 125 -98 185 -48 55 -55 30 -9 -31 60 -81 75
-120 76 -198 0 -84 -24 -142 -87 -204 -164 -162 -431 -116 -533 92 -148 303
30 668 379 776 96 30 219 28 307 -3 178 -62 331 -231 396 -433 53 -169 51
-351 -9 -613 -69 -305 -292 -1087 -402 -1408 -51 -148 -53 -155 -30 -150 34 6
263 546 376 883 33 99 85 229 115 290 73 145 273 519 315 587 283 463 546 671
798 628 88 -15 126 -39 152 -97 48 -108 0 -305 -169 -703 -208 -488 -293 -743
-328 -981 -20 -138 -19 -315 1 -415 58 -283 236 -510 456 -579 138 -44 316
-30 462 35 69 31 44 43 -39 18 -96 -28 -258 -30 -335 -4 -180 62 -303 187
-379 385 -43 114 -55 183 -54 316 2 254 68 502 260 975 190 465 253 676 253
839 0 165 -45 245 -165 292 -51 20 -78 23 -180 24 -112 0 -124 -2 -185 -29
-137 -62 -247 -152 -374 -305 -115 -139 -273 -393 -381 -613 -20 -40 -34 -59
-30 -43 47 212 48 223 49 375 0 130 -3 169 -23 245 -87 340 -356 589 -656 608
-44 3 -104 1 -132 -4z"/>
<path d="M8720 6915 c-284 -64 -612 -268 -831 -518 -160 -183 -329 -471 -408
-699 -36 -105 -85 -303 -103 -418 -20 -132 -17 -446 5 -550 86 -399 355 -616
741 -597 308 15 582 206 703 492 27 63 63 200 63 238 0 25 -2 28 -15 17 -8 -7
-15 -19 -15 -27 0 -8 -13 -45 -30 -84 -134 -316 -433 -530 -745 -533 -256 -2
-443 141 -536 410 -51 149 -62 458 -24 684 72 432 261 813 545 1099 108 109
206 183 354 270 253 148 449 186 593 116 61 -30 142 -116 174 -184 36 -77 54
-186 41 -258 -28 -167 -173 -334 -331 -379 -156 -46 -314 49 -352 212 -15 65
4 126 62 203 47 62 44 79 -6 31 -58 -56 -85 -122 -85 -204 0 -121 52 -200 173
-263 45 -24 64 -27 143 -28 85 0 95 2 168 39 192 94 306 287 293 496 -6 105
-29 177 -82 255 -98 146 -307 222 -495 180z"/>
<path d="M13355 6876 c-34 -15 -96 -80 -119 -124 -8 -16 -89 -307 -180 -648
-147 -549 -245 -909 -318 -1158 l-23 -79 -60 -33 c-118 -65 -253 -79 -428 -43
-56 11 -103 22 -105 23 -1 2 16 37 38 79 68 126 102 230 107 333 7 118 -11
177 -71 232 -61 56 -100 67 -241 67 -100 -1 -129 -5 -177 -24 -81 -32 -147
-79 -183 -129 -27 -40 -30 -51 -30 -120 0 -61 5 -87 24 -125 49 -100 174 -208
329 -286 l63 -32 -21 -28 c-36 -52 -143 -156 -215 -210 -184 -139 -424 -202
-533 -141 -188 106 -150 516 78 838 219 311 591 517 779 432 52 -24 51 -24 51
-6 0 26 -90 60 -170 64 -220 12 -457 -103 -671 -325 -139 -145 -239 -312 -291
-487 -26 -88 -40 -102 -153 -146 -80 -31 -259 -34 -381 -6 l-81 18 51 102
c160 315 131 539 -77 601 -136 40 -331 4 -445 -83 -122 -93 -116 -267 13 -410
51 -56 198 -159 271 -189 24 -10 44 -21 44 -25 0 -29 -175 -201 -270 -265
-165 -111 -394 -168 -486 -120 -191 99 -163 504 56 828 138 202 348 372 545
441 96 33 173 36 245 9 55 -21 76 -12 35 15 -69 45 -203 57 -324 29 -267 -63
-572 -327 -720 -623 -132 -263 -140 -565 -21 -731 141 -194 491 -151 807 100
34 28 104 102 155 165 76 94 97 114 113 109 117 -34 297 -45 397 -24 42 9 133
46 189 76 4 2 4 -34 2 -80 -10 -160 35 -306 120 -384 116 -107 314 -112 523
-14 176 83 286 171 421 339 56 70 79 91 92 87 115 -36 314 -46 416 -20 33 8
86 29 118 45 33 16 57 24 55 17 -3 -6 -38 -115 -78 -240 -83 -259 -85 -279
-18 -285 34 -3 39 1 76 50 70 95 152 240 244 428 258 530 302 614 376 725 110
167 240 282 305 273 28 -4 34 -45 13 -86 -32 -62 -146 -193 -318 -366 -105
-105 -178 -186 -178 -197 0 -34 48 -222 84 -331 150 -448 374 -636 620 -520
53 25 90 53 152 116 119 121 215 252 335 462 l24 41 -3 -131 c-7 -293 78 -440
279 -476 86 -16 150 -6 236 37 122 59 235 177 343 354 27 45 50 79 50 75 0 -5
-11 -49 -24 -100 -14 -50 -32 -129 -41 -176 -15 -77 -15 -90 -2 -122 17 -42
54 -54 103 -33 37 15 56 39 165 210 161 254 204 324 407 660 112 187 206 342
209 345 3 3 3 -10 0 -28 -4 -19 -12 -129 -18 -246 -12 -217 -3 -434 22 -558
53 -268 182 -394 352 -344 89 26 193 132 268 276 l23 45 7 -81 c13 -143 86
-262 185 -300 32 -12 63 -15 113 -12 120 9 243 80 384 221 79 78 75 89 31
-103 l-25 -105 -82 -49 c-303 -182 -600 -398 -708 -515 -224 -242 -303 -525
-229 -817 22 -86 39 -122 90 -189 55 -71 133 -116 214 -122 54 -5 72 -2 122
21 137 63 247 187 345 391 102 213 161 410 288 965 l77 340 140 88 c410 260
663 477 758 651 40 74 19 63 -42 -21 -104 -147 -295 -308 -604 -510 -190 -125
-218 -141 -225 -134 -3 3 17 96 45 206 50 198 51 201 98 253 69 77 148 202
239 382 165 326 196 518 92 569 -55 27 -107 10 -170 -56 -91 -94 -147 -233
-251 -632 -61 -234 -53 -218 -220 -425 -249 -307 -428 -372 -521 -186 -29 57
-30 65 -30 190 0 179 32 297 136 511 126 260 321 504 457 571 102 52 143 24
164 -109 7 -43 17 -78 22 -78 4 0 7 37 4 83 -5 96 -25 138 -77 163 -72 34
-200 -23 -324 -144 -88 -86 -216 -256 -302 -402 -103 -174 -149 -286 -180
-442 -27 -129 -122 -299 -211 -378 -79 -69 -175 -88 -239 -46 -102 67 -154
273 -155 606 0 190 11 324 46 570 14 96 22 185 19 197 -6 27 -45 39 -73 24
-11 -6 -35 -34 -53 -63 -50 -79 -630 -983 -679 -1058 -39 -60 -42 -62 -35 -30
16 90 51 244 100 445 30 121 66 270 80 330 14 61 28 118 31 128 3 10 0 17 -8
17 -15 0 -81 -160 -170 -415 -133 -379 -346 -677 -553 -771 -166 -76 -310 -18
-359 145 -25 83 -21 216 9 341 32 130 107 394 185 645 87 284 102 335 97 348
-8 24 -155 -231 -232 -403 -83 -185 -165 -418 -165 -466 0 -22 -85 -177 -158
-288 -64 -98 -203 -266 -278 -338 -61 -57 -138 -91 -217 -96 -58 -4 -75 0
-122 22 -152 75 -290 332 -369 686 -14 62 -24 114 -23 115 17 5 394 370 441
428 112 137 118 284 13 311 -82 21 -181 -25 -299 -140 -118 -115 -203 -245
-324 -500 -107 -225 -167 -345 -170 -341 -2 2 7 37 20 78 28 86 117 377 141
463 12 43 54 116 159 275 170 257 206 318 295 500 108 221 151 359 151 487 0
39 -5 86 -11 105 -15 43 -55 88 -96 105 -40 17 -118 17 -158 0z m127 -166 c56
-112 -11 -350 -210 -739 -89 -175 -182 -344 -188 -339 -2 3 8 47 22 99 14 52
61 238 106 414 87 348 141 516 183 571 34 45 63 43 87 -6z m4433 -1169 c-23
-65 -140 -301 -150 -301 -4 0 37 138 63 210 23 65 56 133 86 175 32 46 33 8 1
-84z m-7562 -125 c114 -56 99 -245 -39 -479 -34 -59 -49 -77 -61 -72 -59 22
-188 111 -248 170 -174 171 -151 316 62 386 77 25 230 23 286 -5z m1712 13
c21 -6 53 -25 71 -43 67 -67 53 -193 -41 -383 -80 -160 -71 -153 -152 -108
-215 117 -344 283 -303 390 23 61 108 123 197 144 54 13 181 13 228 0z m5255
-1504 c-147 -680 -258 -979 -425 -1148 -62 -63 -136 -100 -200 -101 -94 -2
-192 93 -237 229 -20 61 -23 89 -23 225 1 141 3 162 28 235 56 167 195 342
395 497 134 103 516 361 520 350 1 -4 -25 -134 -58 -287z"/>
<path d="M7375 6824 c-42 -21 -97 -77 -142 -143 -21 -31 -42 -59 -46 -62 -5
-3 -54 -16 -110 -29 -138 -31 -338 -88 -354 -102 -7 -6 -13 -19 -13 -29 0 -15
7 -19 33 -19 28 0 334 59 394 76 20 6 18 -2 -26 -113 -151 -372 -268 -870
-307 -1305 l-7 -78 -76 -73 c-180 -171 -380 -259 -692 -304 -65 -10 -121 -15
-124 -11 -3 3 5 46 19 94 14 49 44 184 66 299 23 116 56 289 75 385 l34 175
38 30 c80 63 137 122 164 170 49 85 34 166 -37 200 -34 16 -39 16 -80 0 -51
-19 -92 -67 -134 -157 -28 -60 -80 -225 -80 -253 0 -14 -108 -103 -270 -222
-113 -83 -129 -100 -107 -109 18 -7 32 2 215 133 78 57 142 101 142 98 0 -3
-18 -92 -39 -198 -86 -418 -122 -561 -158 -630 l-15 -30 -81 6 c-172 13 -328
74 -453 176 -69 58 -144 150 -228 281 -32 50 -47 66 -68 68 -47 6 -68 -13 -68
-61 0 -77 -114 -251 -246 -377 -138 -131 -267 -215 -424 -273 -224 -83 -352
-73 -444 35 -80 93 -101 297 -51 492 73 291 338 660 549 766 77 39 111 39 131
0 30 -59 5 -251 -46 -353 -85 -168 -281 -341 -511 -453 -86 -41 -118 -64 -89
-64 22 0 181 75 267 125 161 95 274 197 363 327 100 149 131 419 56 506 -51
59 -189 20 -348 -100 -94 -70 -227 -214 -300 -326 -238 -361 -301 -713 -171
-953 37 -66 123 -143 194 -171 84 -34 237 -31 343 5 214 74 418 218 561 397
53 66 122 179 146 238 7 18 14 31 16 30 2 -2 10 -48 18 -103 47 -310 182 -511
389 -577 80 -25 211 -28 287 -5 107 32 242 141 306 247 l29 48 70 7 c338 31
586 141 777 344 l83 88 -3 -184 c-5 -338 37 -537 146 -681 26 -34 109 -89 119
-78 3 3 -17 26 -45 51 -93 83 -139 221 -149 445 -15 346 62 819 227 1400 63
219 176 589 182 595 8 8 285 63 423 85 174 26 187 32 183 68 -3 26 -6 27 -62
30 -64 3 -200 -15 -386 -53 -63 -13 -116 -22 -118 -20 -5 4 46 104 70 138 11
15 28 27 39 27 23 0 25 15 3 24 -19 7 -14 9 -49 -10z m-2227 -2085 c127 -118
271 -175 466 -186 l110 -6 -59 -55 c-137 -127 -324 -156 -456 -71 -130 83
-220 260 -243 478 l-7 65 58 -80 c33 -43 92 -109 131 -145z"/>
</g>
</svg>
